# xmcd
#
# Track frame offsets:
#	150
#	18312
#	34447
#	50727
#	64505
#	87790
#	108585
#	123937
#	137930
#	161190
#	183020
#	201375
#	223177
#	252882
#
# Disc length: 3898 seconds
#
# Revision: 1
# Processed by: cddbd v1.5.2PL0 Copyright (c) Steve Scherf et al.
# Submitted via: audiograbber 1.83.01
#
DISCID=cf0f380e
DTITLE=Various Artist - Heit‰ Voltti!
DYEAR=2000
DGENRE=Pop
TTITLE0=Jorma Uotinen - XXX
TTITLE1=Villit Pippelit - Poikien V‰lisest‰ Toveruudesta
TTITLE2=Katja Lampela - Leikit‰‰n Yst‰v‰‰
TTITLE3=Laulavat Kahvinkeitt‰j‰t - La Danza
TTITLE4=Kide and Kone - Vertigo
TTITLE5=Sirpa Palm - Ikuisesti Sinun
TTITLE6=Kloonisiskot - Sekaisin
TTITLE7=Pekka Saukkonen - Fenix
TTITLE8=Meikit Lewis - Dawning
TTITLE9=School Girls - Beautiful
TTITLE10=OK - Welcome To Ganges
TTITLE11=Boys With Toys and Anin - Glue
TTITLE12=Terry O - Fundamental House
TTITLE13=Subliner - Substring
EXTD=TR.
EXTT0=
EXTT1=
EXTT2=
EXTT3=
EXTT4=
EXTT5=
EXTT6=
EXTT7=
EXTT8=
EXTT9=
EXTT10=
EXTT11=
EXTT12=
EXTT13=
PLAYORDER=
